<svg version="1.1" viewBox="0.0 0.0 256.0 256.0" fill="none" stroke="none" stroke-linecap="square" stroke-miterlimit="10" xmlns:xlink="http://www.w3.org/1999/xlink" xmlns="http://www.w3.org/2000/svg"><clipPath id="p.0"><path d="m0 0l256.0 0l0 256.0l-256.0 0l0 -256.0z" clip-rule="nonzero"/></clipPath><g clip-path="url(#p.0)"><path fill="#000000" fill-opacity="0.0" d="m0 0l256.0 0l0 256.0l-256.0 0z" fill-rule="evenodd"/><path fill="#000000" d="m0 0l256.0 0l0 256.0l-256.0 0z" fill-rule="evenodd"/><path stroke="#000000" stroke-width="1.0" stroke-linejoin="round" stroke-linecap="butt" d="m0 0l256.0 0l0 256.0l-256.0 0z" fill-rule="evenodd"/><path fill="#000000" fill-opacity="0.0" d="m0 50.249344l256.0 0l0 144.7559l-256.0 0z" fill-rule="evenodd"/><path fill="#ffffff" d="m73.34766 165.60292q-0.390625 0 -1.65625 -0.0625q-1.265625 -0.0625 -1.53125 -0.0625q-3.71875 0 -7.640625 0.859375q-3.90625 0.859375 -7.765625 1.796875q-3.84375 0.921875 -7.765625 1.796875q-3.921875 0.859375 -8.03125 0.859375q-5.578125 0 -10.09375 -1.921875q-4.515625 -1.9375 -7.703125 -5.390625q-3.1875 -3.453125 -4.921875 -8.15625q-1.71875 -4.71875 -1.71875 -10.296875q0 -5.84375 2.515625 -11.28125q2.53125 -5.453125 6.78125 -10.296875q4.25 -4.859375 9.75 -8.90625q5.515625 -4.046875 11.484375 -7.03125q5.984375 -3.0 11.953125 -4.78125q5.984375 -1.796875 11.171875 -2.328125q2.65625 -0.265625 5.109375 0.46875q2.453125 0.71875 4.171875 2.046875q1.734375 1.328125 2.796875 3.390625q1.0625 2.0625 1.0625 4.71875q-1.859375 0 -3.59375 -0.46875q-1.71875 -0.46875 -3.453125 -1.0625q-1.71875 -0.59375 -3.578125 -0.984375q-1.859375 -0.40625 -3.71875 -0.40625q-4.78125 0 -10.09375 1.390625q-5.3125 1.390625 -10.421875 4.046875q-5.109375 2.65625 -9.703125 6.3125q-4.578125 3.65625 -8.09375 8.046875q-3.515625 4.375 -5.578125 9.421875q-2.0625 5.046875 -2.0625 10.359375q0 3.71875 1.859375 6.640625q1.859375 2.921875 4.640625 4.84375q2.796875 1.921875 6.109375 2.921875q3.328125 1.0 6.515625 1.0q5.84375 0 12.015625 -0.328125q6.1875 -0.34375 11.234375 -2.0q5.046875 -1.65625 8.234375 -5.234375q3.1875 -3.59375 3.1875 -10.109375q0 -0.796875 -0.265625 -2.515625q-0.140625 -1.734375 -1.203125 -2.796875l-24.296875 0q-1.0625 0 -1.9375 -0.53125q-0.859375 -0.53125 -1.65625 -1.390625q-0.796875 -0.859375 -1.203125 -1.859375q-0.390625 -1.0 -0.390625 -1.921875q0 -1.0625 0.265625 -2.1875q0.265625 -1.140625 1.59375 -1.140625q1.328125 0 2.65625 0.46875q1.328125 0.46875 2.65625 0.9375q1.328125 0.453125 2.65625 0.921875q1.328125 0.46875 2.796875 0.46875q4.640625 0 9.15625 -0.796875q4.515625 -0.796875 9.296875 -0.796875q1.0625 0 2.25 0.59375q1.203125 0.59375 2.125 1.46875q0.9375 0.859375 1.59375 2.0625q0.671875 1.1875 0.671875 2.25l0 33.203125q0.265625 0.265625 0.921875 0.796875q0.671875 0.53125 1.328125 1.125q0.671875 0.609375 1.328125 1.203125q0.671875 0.59375 0.9375 0.859375q0.265625 0.9375 -0.203125 1.796875q-0.453125 0.859375 -1.25 1.59375q-0.796875 0.734375 -1.796875 1.1875q-1.0 0.46875 -1.796875 0.46875q-2.78125 0 -4.3125 -1.734375q-1.53125 -1.71875 -2.328125 -4.109375q-0.796875 -2.390625 -0.9375 -4.984375q-0.125 -2.59375 -0.125 -4.453125zm17.132812 -17.65625q0 -1.328125 0.53125 -2.859375q0.53125 -1.53125 1.453125 -2.921875q0.9375 -1.390625 2.265625 -2.3125q1.328125 -0.9375 2.796875 -0.9375q0 8.625 3.046875 13.609375q3.0625 4.984375 8.4375 7.640625q5.375 2.65625 12.28125 3.578125q6.90625 0.9375 14.875 1.328125q2.65625 -0.125 6.96875 -0.1875q4.328125 -0.078125 8.3125 -0.9375q3.984375 -0.859375 6.765625 -2.84375q2.796875 -2.0 2.65625 -6.125q0 -1.859375 -0.140625 -3.3125q-0.125 -1.46875 -0.59375 -2.59375q-0.453125 -1.125 -1.59375 -2.1875q-1.125 -1.0625 -3.109375 -2.125l-39.453125 -21.515625q-2.125 -1.203125 -4.125 -2.984375q-1.984375 -1.796875 -3.3125 -3.984375q-1.328125 -2.203125 -2.125 -4.65625q-0.796875 -2.453125 -0.796875 -4.84375q0 -5.046875 2.71875 -8.234375q2.734375 -3.1875 6.78125 -5.109375q4.046875 -1.9375 8.765625 -2.734375q4.71875 -0.796875 8.703125 -0.796875q1.859375 0 4.78125 0.34375q2.921875 0.328125 6.234375 1.0q3.328125 0.65625 6.578125 1.71875q3.25 1.0625 5.765625 2.71875q2.53125 1.65625 4.1875 3.859375q1.671875 2.1875 1.671875 5.109375q-1.859375 1.0625 -3.796875 0.671875q-1.921875 -0.40625 -3.921875 -1.46875q-1.984375 -1.0625 -4.109375 -2.390625q-2.125 -1.328125 -4.390625 -2.65625q-2.25 -1.328125 -4.78125 -2.125q-2.515625 -0.796875 -5.296875 -0.53125q-2.53125 0 -6.515625 0.265625q-3.984375 0.265625 -7.765625 1.265625q-3.78125 0.984375 -6.515625 3.046875q-2.71875 2.0625 -2.71875 5.78125q0 3.578125 2.515625 6.578125q2.53125 2.984375 6.84375 5.703125q4.328125 2.71875 9.703125 5.1875q5.375 2.453125 10.890625 5.046875q5.515625 2.578125 10.75 5.375q5.25 2.78125 9.171875 6.109375q3.921875 3.3125 6.109375 7.109375q2.1875 3.78125 1.515625 8.5625q-0.65625 4.78125 -4.109375 8.234375q-3.453125 3.453125 -8.765625 5.390625q-5.3125 1.921875 -11.828125 2.515625q-6.5 0.59375 -13.40625 -0.078125q-6.90625 -0.65625 -13.6875 -2.515625q-6.765625 -1.859375 -12.34375 -4.984375q-5.578125 -3.125 -9.5625 -7.296875q-3.984375 -4.1875 -5.3125 -9.5zm142.77344 20.984375q-0.265625 -1.328125 -0.53125 -4.25q-0.265625 -2.921875 -0.671875 -6.5q-0.390625 -3.59375 -0.796875 -7.640625q-0.390625 -4.0625 -0.796875 -7.703125q-0.390625 -3.65625 -0.71875 -6.515625q-0.328125 -2.859375 -0.46875 -4.3125q-0.265625 -1.328125 -0.203125 -3.3125q0.078125 -2.0 -0.265625 -4.125q-0.328125 -2.125 -1.0625 -3.984375q-0.71875 -1.859375 -2.1875 -2.65625q-4.78125 2.65625 -9.5625 3.984375q-4.78125 1.328125 -10.09375 1.328125q-7.828125 0 -15.671875 -9.5625q-0.53125 0 -0.734375 0.796875q-0.1875 0.796875 -0.328125 1.859375q-0.125 1.0625 -0.0625 2.265625q0.0625 1.1875 0.0625 1.984375l-0.125 44.359375q0 0.796875 -0.46875 1.390625q-0.46875 0.59375 -1.140625 0.859375q-0.65625 0.265625 -1.390625 0.46875q-0.71875 0.203125 -1.390625 0.203125q-2.125 0 -2.859375 -1.796875q-0.71875 -1.796875 -0.984375 -3.515625l0 -19.125q0 -8.765625 0.71875 -17.265625q0.734375 -8.5 0.734375 -17.265625q0 -2.65625 -1.0625 -4.78125q-1.0625 -2.125 -2.265625 -4.1875q-1.1875 -2.0625 -2.1875 -4.109375q-0.984375 -2.0625 -0.984375 -4.59375q0 -2.78125 2.65625 -2.78125q3.3125 0 5.5625 2.0q2.265625 1.984375 3.984375 4.78125q1.734375 2.78125 3.328125 6.234375q1.59375 3.453125 3.78125 6.25q2.203125 2.78125 5.046875 4.78125q2.859375 1.984375 7.109375 1.984375q5.3125 0.265625 8.828125 -1.65625q3.53125 -1.9375 5.71875 -4.921875q2.1875 -2.984375 3.578125 -6.5q1.40625 -3.53125 2.46875 -6.515625q1.0625 -2.984375 2.25 -4.84375q1.328125 -1.859375 3.1875 -1.46875q1.46875 -0.265625 2.1875 0.671875q0.734375 0.921875 1.125 2.328125q0.40625 1.390625 0.46875 2.71875q0.078125 1.328125 0.078125 1.859375q0 5.046875 -0.734375 9.625q-0.734375 4.578125 -0.734375 9.765625q0 6.765625 0.921875 13.40625q0.9375 6.640625 2.203125 13.359375q1.265625 6.703125 2.25 13.34375q1.0 6.640625 1.0 13.28125q0 1.0625 -0.265625 1.734375q-0.265625 0.65625 -0.796875 0.921875q-0.53125 0.265625 -1.203125 0.265625q-0.65625 0 -1.453125 0q-1.71875 0 -3.125 -0.390625q-1.390625 -0.40625 -1.921875 -2.53125z" fill-rule="nonzero"/></g></svg>